<svg xmlns="http://www.w3.org/2000/svg" xmlns:xlink="http://www.w3.org/1999/xlink" width="512" zoomAndPan="magnify" viewBox="0 0 384 383.999986" height="512" preserveAspectRatio="xMidYMid meet" version="1.0"><defs><g/><clipPath id="12047472a5"><path d="M 268.539062 22 L 357 22 L 357 61 L 268.539062 61 Z M 268.539062 22 " clip-rule="nonzero"/></clipPath><clipPath id="efc83b0bca"><path d="M 345 18.027344 L 360.425781 18.027344 L 360.425781 34 L 345 34 Z M 345 18.027344 " clip-rule="nonzero"/></clipPath><clipPath id="964a7a22b8"><rect x="0" width="368" y="0" height="108"/></clipPath></defs><g transform="matrix(1, 0, 0, 1, 10, 118)"><g clip-path="url(#964a7a22b8)"><g clip-path="url(#12047472a5)"><path fill="#c1ff72" d="M 303.734375 60.277344 L 284.648438 41.195312 L 272.222656 53.617188 L 268.539062 49.9375 L 284.648438 33.828125 L 303.734375 52.914062 L 316.445312 40.203125 L 325.734375 49.492188 L 352.605469 22.621094 L 356.285156 26.300781 L 325.734375 56.855469 L 316.445312 47.566406 Z M 303.734375 60.277344 " fill-opacity="1" fill-rule="nonzero"/></g><g clip-path="url(#efc83b0bca)"><path fill="#c1ff72" d="M 360.875 18.027344 L 357.949219 33.644531 L 345.261719 20.953125 Z M 360.875 18.027344 " fill-opacity="1" fill-rule="nonzero"/></g><path fill="#c1ff72" d="M 278.382812 56.386719 L 284.722656 56.386719 L 284.722656 89.964844 L 278.382812 89.964844 Z M 278.382812 56.386719 " fill-opacity="1" fill-rule="nonzero"/><path fill="#c1ff72" d="M 297.3125 74.050781 L 303.652344 74.050781 L 303.652344 89.964844 L 297.3125 89.964844 Z M 297.3125 74.050781 " fill-opacity="1" fill-rule="nonzero"/><path fill="#c1ff72" d="M 316.242188 64.695312 L 322.582031 64.695312 L 322.582031 89.964844 L 316.242188 89.964844 Z M 316.242188 64.695312 " fill-opacity="1" fill-rule="nonzero"/><path fill="#c1ff72" d="M 335.171875 52.089844 L 341.511719 52.089844 L 341.511719 89.964844 L 335.171875 89.964844 Z M 335.171875 52.089844 " fill-opacity="1" fill-rule="nonzero"/><path fill="#c1ff72" d="M 349.898438 39.152344 L 356.238281 39.152344 L 356.238281 89.964844 L 349.898438 89.964844 Z M 349.898438 39.152344 " fill-opacity="1" fill-rule="nonzero"/><path fill="#c1ff72" d="M 278.382812 56.386719 L 284.722656 56.386719 L 284.722656 89.964844 L 278.382812 89.964844 Z M 278.382812 56.386719 " fill-opacity="1" fill-rule="nonzero"/><path fill="#c1ff72" d="M 297.3125 74.050781 L 303.652344 74.050781 L 303.652344 89.964844 L 297.3125 89.964844 Z M 297.3125 74.050781 " fill-opacity="1" fill-rule="nonzero"/><path fill="#c1ff72" d="M 316.242188 64.695312 L 322.582031 64.695312 L 322.582031 89.964844 L 316.242188 89.964844 Z M 316.242188 64.695312 " fill-opacity="1" fill-rule="nonzero"/><path fill="#c1ff72" d="M 335.171875 52.089844 L 341.511719 52.089844 L 341.511719 89.964844 L 335.171875 89.964844 Z M 335.171875 52.089844 " fill-opacity="1" fill-rule="nonzero"/><path fill="#c1ff72" d="M 349.898438 39.152344 L 356.238281 39.152344 L 356.238281 89.964844 L 349.898438 89.964844 Z M 349.898438 39.152344 " fill-opacity="1" fill-rule="nonzero"/><path fill="#39bcf6" d="M 278.382812 56.386719 L 284.722656 56.386719 L 284.722656 89.964844 L 278.382812 89.964844 Z M 278.382812 56.386719 " fill-opacity="1" fill-rule="nonzero"/><path fill="#39bcf6" d="M 297.3125 74.050781 L 303.652344 74.050781 L 303.652344 89.964844 L 297.3125 89.964844 Z M 297.3125 74.050781 " fill-opacity="1" fill-rule="nonzero"/><path fill="#39bcf6" d="M 316.242188 64.695312 L 322.582031 64.695312 L 322.582031 89.964844 L 316.242188 89.964844 Z M 316.242188 64.695312 " fill-opacity="1" fill-rule="nonzero"/><path fill="#39bcf6" d="M 335.171875 52.089844 L 341.511719 52.089844 L 341.511719 89.964844 L 335.171875 89.964844 Z M 335.171875 52.089844 " fill-opacity="1" fill-rule="nonzero"/><path fill="#39bcf6" d="M 349.898438 39.152344 L 356.238281 39.152344 L 356.238281 89.964844 L 349.898438 89.964844 Z M 349.898438 39.152344 " fill-opacity="1" fill-rule="nonzero"/><g fill="#39bcf6" fill-opacity="1"><g transform="translate(0.436465, 88.537955)"><g><path d="M 18.328125 0 L 10.296875 -26.171875 L 10.09375 -26.171875 C 10.375 -20.847656 10.515625 -17.296875 10.515625 -15.515625 L 10.515625 0 L 4.203125 0 L 4.203125 -33.359375 L 13.828125 -33.359375 L 21.71875 -7.84375 L 21.859375 -7.84375 L 30.234375 -33.359375 L 39.859375 -33.359375 L 39.859375 0 L 33.265625 0 L 33.265625 -15.796875 C 33.265625 -16.535156 33.273438 -17.390625 33.296875 -18.359375 C 33.328125 -19.335938 33.429688 -21.925781 33.609375 -26.125 L 33.40625 -26.125 L 24.8125 0 Z M 18.328125 0 "/></g></g></g><g fill="#39bcf6" fill-opacity="1"><g transform="translate(44.501554, 88.537955)"><g><path d="M 14.21875 -21.046875 C 12.738281 -21.046875 11.582031 -20.578125 10.75 -19.640625 C 9.914062 -18.703125 9.4375 -17.375 9.3125 -15.65625 L 19.078125 -15.65625 C 19.046875 -17.375 18.597656 -18.703125 17.734375 -19.640625 C 16.867188 -20.578125 15.695312 -21.046875 14.21875 -21.046875 Z M 15.203125 0.453125 C 11.085938 0.453125 7.875 -0.675781 5.5625 -2.9375 C 3.25 -5.207031 2.09375 -8.421875 2.09375 -12.578125 C 2.09375 -16.847656 3.160156 -20.148438 5.296875 -22.484375 C 7.441406 -24.816406 10.398438 -25.984375 14.171875 -25.984375 C 17.773438 -25.984375 20.582031 -24.957031 22.59375 -22.90625 C 24.601562 -20.851562 25.609375 -18.019531 25.609375 -14.40625 L 25.609375 -11.015625 L 9.15625 -11.015625 C 9.226562 -9.046875 9.8125 -7.503906 10.90625 -6.390625 C 12 -5.273438 13.535156 -4.71875 15.515625 -4.71875 C 17.054688 -4.71875 18.507812 -4.878906 19.875 -5.203125 C 21.238281 -5.523438 22.671875 -6.035156 24.171875 -6.734375 L 24.171875 -1.34375 C 22.953125 -0.738281 21.648438 -0.289062 20.265625 0 C 18.878906 0.300781 17.191406 0.453125 15.203125 0.453125 Z M 15.203125 0.453125 "/></g></g></g><g fill="#39bcf6" fill-opacity="1"><g transform="translate(72.113547, 88.537955)"><g><path d="M 14.40625 -5.09375 C 15.613281 -5.09375 17.070312 -5.359375 18.78125 -5.890625 L 18.78125 -0.703125 C 17.039062 0.0664062 14.910156 0.453125 12.390625 0.453125 C 9.609375 0.453125 7.582031 -0.25 6.3125 -1.65625 C 5.039062 -3.0625 4.40625 -5.171875 4.40625 -7.984375 L 4.40625 -20.28125 L 1.078125 -20.28125 L 1.078125 -23.234375 L 4.90625 -25.5625 L 6.921875 -30.9375 L 11.359375 -30.9375 L 11.359375 -25.515625 L 18.5 -25.515625 L 18.5 -20.28125 L 11.359375 -20.28125 L 11.359375 -7.984375 C 11.359375 -6.992188 11.632812 -6.265625 12.1875 -5.796875 C 12.75 -5.328125 13.488281 -5.09375 14.40625 -5.09375 Z M 14.40625 -5.09375 "/></g></g></g><g fill="#39bcf6" fill-opacity="1"><g transform="translate(92.400375, 88.537955)"><g><path d="M 17.890625 -25.984375 C 18.835938 -25.984375 19.617188 -25.914062 20.234375 -25.78125 L 19.71875 -19.265625 C 19.15625 -19.410156 18.46875 -19.484375 17.65625 -19.484375 C 15.4375 -19.484375 13.707031 -18.910156 12.46875 -17.765625 C 11.226562 -16.628906 10.609375 -15.035156 10.609375 -12.984375 L 10.609375 0 L 3.65625 0 L 3.65625 -25.515625 L 8.921875 -25.515625 L 9.953125 -21.21875 L 10.296875 -21.21875 C 11.085938 -22.65625 12.15625 -23.804688 13.5 -24.671875 C 14.84375 -25.546875 16.304688 -25.984375 17.890625 -25.984375 Z M 17.890625 -25.984375 "/></g></g></g><g fill="#39bcf6" fill-opacity="1"><g transform="translate(113.622815, 88.537955)"><g><path d="M 3.359375 -32.109375 C 3.359375 -34.367188 4.617188 -35.5 7.140625 -35.5 C 9.671875 -35.5 10.9375 -34.367188 10.9375 -32.109375 C 10.9375 -31.023438 10.617188 -30.179688 9.984375 -29.578125 C 9.347656 -28.984375 8.398438 -28.6875 7.140625 -28.6875 C 4.617188 -28.6875 3.359375 -29.828125 3.359375 -32.109375 Z M 10.609375 0 L 3.65625 0 L 3.65625 -25.515625 L 10.609375 -25.515625 Z M 10.609375 0 "/></g></g></g><g fill="#39bcf6" fill-opacity="1"><g transform="translate(127.885208, 88.537955)"><g><path d="M 14.015625 0.453125 C 6.066406 0.453125 2.09375 -3.90625 2.09375 -12.625 C 2.09375 -16.957031 3.171875 -20.265625 5.328125 -22.546875 C 7.492188 -24.835938 10.59375 -25.984375 14.625 -25.984375 C 17.570312 -25.984375 20.21875 -25.40625 22.5625 -24.25 L 20.515625 -18.875 C 19.421875 -19.3125 18.398438 -19.671875 17.453125 -19.953125 C 16.515625 -20.234375 15.570312 -20.375 14.625 -20.375 C 11.007812 -20.375 9.203125 -17.804688 9.203125 -12.671875 C 9.203125 -7.679688 11.007812 -5.1875 14.625 -5.1875 C 15.96875 -5.1875 17.207031 -5.363281 18.34375 -5.71875 C 19.488281 -6.070312 20.628906 -6.628906 21.765625 -7.390625 L 21.765625 -1.4375 C 20.640625 -0.71875 19.503906 -0.222656 18.359375 0.046875 C 17.210938 0.316406 15.765625 0.453125 14.015625 0.453125 Z M 14.015625 0.453125 "/></g></g></g><g fill="#39bcf6" fill-opacity="1"><g transform="translate(151.914488, 88.537955)"><g><path d="M 21.453125 -7.578125 C 21.453125 -4.960938 20.539062 -2.96875 18.71875 -1.59375 C 16.90625 -0.226562 14.1875 0.453125 10.5625 0.453125 C 8.707031 0.453125 7.125 0.328125 5.8125 0.078125 C 4.507812 -0.171875 3.285156 -0.539062 2.140625 -1.03125 L 2.140625 -6.78125 C 3.429688 -6.164062 4.882812 -5.648438 6.5 -5.234375 C 8.125 -4.828125 9.554688 -4.625 10.796875 -4.625 C 13.316406 -4.625 14.578125 -5.359375 14.578125 -6.828125 C 14.578125 -7.367188 14.410156 -7.8125 14.078125 -8.15625 C 13.742188 -8.5 13.164062 -8.882812 12.34375 -9.3125 C 11.519531 -9.75 10.425781 -10.257812 9.0625 -10.84375 C 7.09375 -11.664062 5.648438 -12.425781 4.734375 -13.125 C 3.816406 -13.820312 3.144531 -14.625 2.71875 -15.53125 C 2.300781 -16.4375 2.09375 -17.550781 2.09375 -18.875 C 2.09375 -21.132812 2.972656 -22.882812 4.734375 -24.125 C 6.492188 -25.363281 8.984375 -25.984375 12.203125 -25.984375 C 15.273438 -25.984375 18.265625 -25.316406 21.171875 -23.984375 L 19.078125 -18.96875 C 17.796875 -19.507812 16.597656 -19.953125 15.484375 -20.296875 C 14.378906 -20.648438 13.25 -20.828125 12.09375 -20.828125 C 10.039062 -20.828125 9.015625 -20.273438 9.015625 -19.171875 C 9.015625 -18.546875 9.34375 -18.003906 10 -17.546875 C 10.664062 -17.085938 12.117188 -16.410156 14.359375 -15.515625 C 16.347656 -14.710938 17.804688 -13.957031 18.734375 -13.25 C 19.660156 -12.550781 20.34375 -11.742188 20.78125 -10.828125 C 21.226562 -9.921875 21.453125 -8.835938 21.453125 -7.578125 Z M 21.453125 -7.578125 "/></g></g></g><g fill="#c1ff72" fill-opacity="1"><g transform="translate(175.154362, 88.537955)"><g><path d="M 34.484375 -16.734375 C 34.484375 -11.203125 33.113281 -6.953125 30.375 -3.984375 C 27.632812 -1.023438 23.707031 0.453125 18.59375 0.453125 C 13.488281 0.453125 9.566406 -1.023438 6.828125 -3.984375 C 4.085938 -6.953125 2.71875 -11.210938 2.71875 -16.765625 C 2.71875 -22.316406 4.085938 -26.554688 6.828125 -29.484375 C 9.578125 -32.421875 13.515625 -33.890625 18.640625 -33.890625 C 23.765625 -33.890625 27.6875 -32.410156 30.40625 -29.453125 C 33.125 -26.503906 34.484375 -22.265625 34.484375 -16.734375 Z M 10.125 -16.734375 C 10.125 -13.003906 10.832031 -10.195312 12.25 -8.3125 C 13.664062 -6.425781 15.78125 -5.484375 18.59375 -5.484375 C 24.238281 -5.484375 27.0625 -9.234375 27.0625 -16.734375 C 27.0625 -24.242188 24.253906 -28 18.640625 -28 C 15.828125 -28 13.703125 -27.050781 12.265625 -25.15625 C 10.835938 -23.257812 10.125 -20.453125 10.125 -16.734375 Z M 10.125 -16.734375 "/></g></g></g><g fill="#c1ff72" fill-opacity="1"><g transform="translate(212.350682, 88.537955)"><g><path d="M 27.203125 0 L 20.234375 0 L 20.234375 -14.90625 C 20.234375 -16.738281 19.90625 -18.113281 19.25 -19.03125 C 18.601562 -19.957031 17.566406 -20.421875 16.140625 -20.421875 C 14.191406 -20.421875 12.78125 -19.769531 11.90625 -18.46875 C 11.039062 -17.164062 10.609375 -15.007812 10.609375 -12 L 10.609375 0 L 3.65625 0 L 3.65625 -25.515625 L 8.96875 -25.515625 L 9.90625 -22.25 L 10.296875 -22.25 C 11.066406 -23.476562 12.132812 -24.40625 13.5 -25.03125 C 14.863281 -25.664062 16.410156 -25.984375 18.140625 -25.984375 C 21.109375 -25.984375 23.359375 -25.179688 24.890625 -23.578125 C 26.429688 -21.972656 27.203125 -19.660156 27.203125 -16.640625 Z M 27.203125 0 "/></g></g></g><g fill="#c1ff72" fill-opacity="1"><g transform="translate(243.066171, 88.537955)"><g><path d="M 14.21875 -21.046875 C 12.738281 -21.046875 11.582031 -20.578125 10.75 -19.640625 C 9.914062 -18.703125 9.4375 -17.375 9.3125 -15.65625 L 19.078125 -15.65625 C 19.046875 -17.375 18.597656 -18.703125 17.734375 -19.640625 C 16.867188 -20.578125 15.695312 -21.046875 14.21875 -21.046875 Z M 15.203125 0.453125 C 11.085938 0.453125 7.875 -0.675781 5.5625 -2.9375 C 3.25 -5.207031 2.09375 -8.421875 2.09375 -12.578125 C 2.09375 -16.847656 3.160156 -20.148438 5.296875 -22.484375 C 7.441406 -24.816406 10.398438 -25.984375 14.171875 -25.984375 C 17.773438 -25.984375 20.582031 -24.957031 22.59375 -22.90625 C 24.601562 -20.851562 25.609375 -18.019531 25.609375 -14.40625 L 25.609375 -11.015625 L 9.15625 -11.015625 C 9.226562 -9.046875 9.8125 -7.503906 10.90625 -6.390625 C 12 -5.273438 13.535156 -4.71875 15.515625 -4.71875 C 17.054688 -4.71875 18.507812 -4.878906 19.875 -5.203125 C 21.238281 -5.523438 22.671875 -6.035156 24.171875 -6.734375 L 24.171875 -1.34375 C 22.953125 -0.738281 21.648438 -0.289062 20.265625 0 C 18.878906 0.300781 17.191406 0.453125 15.203125 0.453125 Z M 15.203125 0.453125 "/></g></g></g><g fill="#000000" fill-opacity="1"><g transform="translate(270.683445, 88.537955)"><g/></g></g></g></g></svg>